<?xml version="1.0" encoding="utf-8"?>
<!-- Generator: Adobe Illustrator 18.1.1, SVG Export Plug-In . SVG Version: 6.00 Build 0)  -->
<svg version="1.1" id="Social_Media_Dingdongs" xmlns="http://www.w3.org/2000/svg" xmlns:xlink="http://www.w3.org/1999/xlink"
	 x="0px" y="0px" viewBox="-300 200 600 300" enable-background="new -300 200 600 300" xml:space="preserve">
<g id="Twitter">
	<path fill="#FFFFFF" d="M176.8,432.4c-1.9,0.9-4,1.4-6.1,1.7c2.2-1.3,3.9-3.4,4.7-5.9c-2,1.2-4.3,2.1-6.8,2.6
		c-1.9-2.1-4.7-3.3-7.8-3.3c-5.8,0-10.6,4.7-10.6,10.6c0,0.9,0.1,1.6,0.3,2.4c-8.9-0.5-16.6-4.7-21.9-11.1c-0.9,1.6-1.4,3.4-1.4,5.4
		c0,3.7,1.9,6.9,4.7,8.9c-1.7-0.1-3.3-0.5-4.8-1.3v0.2c0,5.1,3.7,9.4,8.5,10.4c-0.9,0.2-1.9,0.4-2.8,0.4c-0.7,0-1.3-0.1-2-0.2
		c1.3,4.2,5.3,7.3,9.9,7.4c-3.7,2.9-8.2,4.5-13.2,4.5c-0.9,0-1.7-0.1-2.6-0.2c4.7,3,10.3,4.7,16.2,4.7c19.5,0,30.2-16.2,30.2-30.2
		v-1.4C173.7,436.4,175.4,434.5,176.8,432.4z"/>
</g>
<g id="Flickr">
	<path fill="#FFFFFF" d="M122.9,247.9c0,6.5,5.3,11.8,11.8,11.8c6.5,0,11.8-5.3,11.8-11.8c0-6.5-5.3-11.8-11.8-11.8
		C128.3,236.1,122.9,241.4,122.9,247.9z M153.3,247.9c0,6.5,5.3,11.8,11.8,11.8c6.5,0,11.8-5.3,11.8-11.8c0-6.5-5.3-11.8-11.8-11.8
		C158.7,236.1,153.3,241.4,153.3,247.9z"/>
</g>
<g id="GitHub">
	<path id="github" fill="#FFFFFF" d="M263.7,228.2c0.7,1.5,1.1,4.1,0.5,5.9c2.7,2.2,3.6,7.8,2.3,12.3c3.8,0.2,8.3-0.2,11.2,1
		c-2.7-0.3-6.5-1.1-10-0.8c-0.7,0.1-1.7,0-1.6,0.9c4.1,0.3,8.1,0.7,11.5,1.7c-3.3-0.6-7.3-1.3-11.5-1.5c-1.7,3.3-5.2,5-9.9,5.4
		c0.5,1.1,1.5,1.5,1.7,3.3c0.3,2.7-0.6,6.6,0.3,8.3c0.4,0.8,1.2,0.8,1.6,1.6c-1.2,1.4-4.1-0.2-4.3-1.6c-0.6-2.5,0.8-6.3-0.7-8
		c0.1,2.7-0.7,6.5,0.1,8.9c0.3,0.9,1.2,1.3,0.9,2.2c-5.4,0.6-3.2-7-4-11.4c-0.8,0.1-0.4,1.2-0.5,1.7c0,4.3,0.9,10.3-3.8,9.7
		c-0.2-0.9,0.7-1.2,0.9-2.1c0.8-2.4-0.2-6.1,0.2-9c-1.7,1.3,0.2,6.1-0.9,8.5c-0.7,1.4-2.7,2-4.2,1.3c0.2-1,1.2-0.8,1.7-1.8
		c0.7-1.3,0-3.2,0.2-5.2c-3.3,0.7-5.9-0.1-7.1-2.2c-0.6-0.9-0.7-2-1.4-2.8c-0.7-0.8-1.7-0.9-2.1-2.1c4.1-1,4.2,4.2,7.9,4.3
		c1.2,0,1.7-0.3,2.7-0.6c0.3-1.3,0.9-2.2,1.8-3c-4.6-0.7-8.3-2.1-10.1-5.5c-4.2,0.2-8,0.7-11.5,1.6c3.2-1.2,7.1-1.6,11.4-1.7
		c-0.2-1.5-2.4-1.1-3.8-1c-2.5,0.1-5.6,0.4-7.6,0.8c2.9-1,7-0.9,10.9-0.9c-1.2-3.7-0.7-9.7,1.8-12c-0.7-1.9-0.5-4.9,0.5-6.4
		c2.9,0.2,4.7,1.4,6.6,2.7c2.2-0.7,4.7-1,7.8-0.8c1.3,0.1,2.7,0.7,3.7,0.6s2.1-1.2,3-1.6C261.3,228.5,262.3,228.3,263.7,228.2z"/>
</g>
<g id="Tumblr">
	<path fill="#FFFFFF" d="M54,433.8v-10.4h-6.8c-0.2,0.4-0.3,0.8-0.3,1.3c-0.1,0.3-0.2,0.4-0.2,0.6c-0.7,3.8-2.7,6.6-6.1,8
		c-1,0.4-2,0.5-2.9,0.4v8.4h5c0.1,11.9,0.1,17.9,0.1,18.3c0,0.3,0,0.4,0,0.7c0.6,5.2,3.3,8.3,8.1,9.4c2,0.5,4,0.8,6.1,0.8
		c2.7-0.1,5.3-0.5,7.9-1.4v-9.9c-1.5,0.4-2.9,0.9-4.2,1.2c-2.4,0.7-4.4,0.3-6.1-1.3c-0.2-0.3-0.4-0.5-0.4-0.9
		c-0.3-1.2-0.4-2.6-0.4-3.8v-13.1h10.7v-8.5L54,433.8L54,433.8z"/>
</g>
<g id="Facebook">
	<path fill="#FFFFFF" d="M63.4,224.3h-6.2c-6.9,0-11.4,4.6-11.4,11.7v5.4h-6.2c-0.5,0-1,0.4-1,1v7.8c0,0.5,0.4,1,1,1h6.2v19.7
		c0,0.5,0.4,1,1,1h8.1c0.5,0,1-0.4,1-1v-19.8h7.3c0.5,0,1-0.4,1-1v-7.8c0-0.3-0.1-0.5-0.3-0.7c-0.2-0.2-0.4-0.3-0.7-0.3H56v-4.6
		c0-2.2,0.5-3.3,3.4-3.3h4.2c0.5,0,1-0.4,1-1v-7.3C64.3,224.7,63.9,224.3,63.4,224.3z"/>
</g>
<g id="Pinterest">
	<path fill="#FFFFFF" d="M70.3,339.6c-1.3-9.6-10.9-14.5-21.1-13.3c-8.1,0.9-16.1,7.4-16.5,16.7c-0.2,5.7,1.4,9.9,6.8,11.2
		c2.4-4.2-0.8-5.1-1.2-8.1c-2-12.3,14.2-20.7,22.7-12.1c5.8,5.9,2,24.2-7.4,22.3c-9.1-1.8,4.4-16.4-2.8-19.3
		c-5.8-2.4-9,7.1-6.2,11.8c-1.7,8-5.1,15.7-3.7,25.8c4.6-3.3,6.2-9.8,7.4-16.5c2.4,1.4,3.6,2.9,6.5,3.1
		C65.7,362.2,71.8,350.4,70.3,339.6z"/>
</g>
<g id="GooglePlus">
	<path fill="#FFFFFF" d="M-243.7,328.5h-10.4c-4.7,0-7.9,1-10.8,3.4c-2.3,2-3.6,4.9-3.6,7.6c0,4.3,3.3,8.9,9.5,8.9
		c0.6,0,1.2-0.1,1.8-0.1l-0.1,0.2c-0.3,0.6-0.5,1.1-0.5,2c0,1.7,0.8,2.8,1.6,3.7l0.1,0.1h-0.2c-2.5,0.2-7.3,0.5-10.7,2.6
		c-4.1,2.4-4.4,5.9-4.4,6.9c0,4.1,3.8,8.2,12.2,8.2c9.8,0,14.9-5.4,14.9-10.8c0-4-2.3-5.9-4.8-8l-2.1-1.6c-0.6-0.5-1.5-1.2-1.5-2.4
		c0-1.2,0.8-2,1.5-2.7l0.1-0.1c2.3-1.7,4.8-3.7,4.8-8.1s-2.7-6.6-4.1-7.7h3.5h0.1l2.9-1.9C-243.7,328.6-243.7,328.5-243.7,328.5
		C-243.5,328.5-243.6,328.5-243.7,328.5z M-256.4,369.7c-6,0-10-2.8-10-6.9c0-2.7,1.6-4.7,4.9-5.9c2.6-0.9,6-1,6-1
		c0.6,0,0.9,0,1.3,0.1c4.2,2.9,6.2,4.5,6.2,7.5C-248,367.4-251.2,369.7-256.4,369.7z M-256.4,346.8c-5,0-7.1-6.6-7.1-10.1
		c0-1.8,0.4-3.2,1.2-4.2c1-1.1,2.5-1.9,4-1.9c4.6,0,7.2,6.2,7.2,10.5c0,0.7,0,2.8-1.4,4.2C-253.5,346.2-255.1,346.8-256.4,346.8z"/>
	<path fill="#FFFFFF" d="M-229.2,348.8h-5.5v-5.5c0-0.1-0.1-0.3-0.3-0.3h-2.3c-0.1,0-0.3,0.1-0.3,0.3v5.5h-5.5
		c-0.1,0-0.3,0.1-0.3,0.3v2.4c0,0.1,0.1,0.3,0.3,0.3h5.5v5.5c0,0.1,0.1,0.3,0.3,0.3h2.3c0.1,0,0.3-0.1,0.3-0.3v-5.5h5.5
		c0.1,0,0.3-0.1,0.3-0.3V349C-228.9,349-229,348.8-229.2,348.8z"/>
</g>
<g id="Reddit">
	<path fill="#FFFFFF" d="M276.5,349.7c0-3-2.4-5.5-5.5-5.5c-1.4,0-2.7,0.6-3.7,1.6c-3.7-2.5-8.7-4.1-14.4-4.2l3.1-9.6l8.2,1.9v0.1
		c0,2.5,2,4.5,4.5,4.5s4.5-2,4.5-4.5s-2-4.5-4.5-4.5c-1.9,0-3.5,1.2-4.2,2.8l-8.9-2.1c-0.4-0.1-0.7,0.2-0.9,0.5l-3.4,10.7
		c-5.8,0.1-11.1,1.7-15,4.2c-1-0.9-2.3-1.5-3.7-1.5c-3,0-5.5,2.4-5.5,5.5c0,1.9,1.1,3.7,2.7,4.7c-0.1,0.6-0.2,1.2-0.2,1.7
		c0,8.1,9.9,14.6,22,14.6c12.1,0,22-6.6,22-14.6c0-0.6-0.1-1.1-0.2-1.7C275.4,353.5,276.5,351.7,276.5,349.7z M268.7,331
		c1.6,0,2.9,1.3,2.9,2.9c0,1.7-1.3,2.9-2.9,2.9c-1.7,0-2.9-1.3-2.9-2.9S267.1,331,268.7,331z M228.7,349.7c0-2.2,1.7-3.9,3.9-3.9
		c0.9,0,1.7,0.3,2.4,0.8c-2.2,1.7-3.9,3.9-4.7,6.2C229.3,352.1,228.7,350.9,228.7,349.7z M251.7,369.2c-11.3,0-20.5-5.9-20.5-13.1
		s9.2-13.1,20.5-13.1c11.3,0,20.5,5.9,20.5,13.1C272.2,363.4,263,369.2,251.7,369.2z M273.2,352.9c-0.8-2.3-2.4-4.5-4.7-6.2
		c0.7-0.6,1.6-0.9,2.5-0.9c2.2,0,3.9,1.7,3.9,3.9C275,351,274.3,352.2,273.2,352.9z"/>
	<path fill="#FFFFFF" d="M247.6,353.4c0-1.8-1.5-3.2-3.2-3.2c-1.7,0-3.2,1.5-3.2,3.2c0,1.8,1.5,3.2,3.2,3.2
		C246.1,356.6,247.6,355.2,247.6,353.4z"/>
	<path fill="#FFFFFF" d="M259.4,350.2c-1.8,0-3.2,1.5-3.2,3.2c0,1.8,1.5,3.2,3.2,3.2c1.8,0,3.2-1.5,3.2-3.2
		C262.6,351.6,261.1,350.2,259.4,350.2z"/>
	<path fill="#FFFFFF" d="M258.6,362c-1.3,1.3-3.6,2-6.8,2l0,0l0,0c-3.2,0-5.4-0.7-6.8-2c-0.3-0.3-0.7-0.3-1.1,0
		c-0.3,0.3-0.3,0.7,0,1.1c1.7,1.7,4.2,2.4,7.9,2.4l0,0l0,0c3.7,0,6.2-0.8,7.9-2.4c0.3-0.3,0.3-0.7,0-1.1
		C259.4,361.6,258.9,361.6,258.6,362z"/>
</g>
<g id="RSS">
	<path fill="#FFFFFF" d="M-265.8,459.5c-3.9,0-7,3.2-7,7c0,3.9,3.2,7,7,7c3.8,0,7-3.2,7-7C-258.8,462.5-261.9,459.5-265.8,459.5z"/>
	<path fill="#FFFFFF" d="M-272.1,441.6c-0.4,0-0.7,0.4-0.7,0.7v8.9c0,0.4,0.4,0.7,0.7,0.7c11.4,0,20.7,9.3,20.7,20.7
		c0,0.4,0.4,0.7,0.7,0.7h8.9l0,0c0.4,0,0.7-0.4,0.7-0.7v-0.3C-241.2,455.5-255,441.6-272.1,441.6z"/>
	<path fill="#FFFFFF" d="M-225.6,472.4c-0.1-25.5-20.9-46.2-46.5-46.2c-0.4,0-0.7,0.4-0.7,0.7v9.2c0,0.4,0.4,0.7,0.7,0.7
		c19.8,0,35.9,16.1,35.9,35.9c0,0.4,0.4,0.7,0.7,0.7h9.2l0,0c0.4,0,0.7-0.4,0.7-0.7L-225.6,472.4z"/>
</g>
<g id="Printer">
	<path fill="#FFFFFF" d="M138.7,363.2v8.6h22.8v-8.6v-5.7h-22.8V363.2z M141.5,360.3h17.1v2.9h-17.1V360.3z M141.5,366.1h17.1v2.9
		h-17.1V366.1z"/>
	<polygon fill="#FFFFFF" points="161.5,337.5 161.5,328.9 138.7,328.9 138.7,337.5 138.7,343.2 161.5,343.2 	"/>
	<path fill="#FFFFFF" d="M167.2,337.5h-2.9v5.7v2.9h-28.6v-2.9v-5.7h-2.9c-2.9,0-5.7,2.9-5.7,5.7v14.3c0,2.9,2.9,5.7,5.7,5.7h2.9
		v-5.7v-2.9h28.6v2.9v5.7h2.9c2.9,0,5.7-2.9,5.7-5.7v-14.3C172.9,340.4,170.1,337.5,167.2,337.5z"/>
</g>
<g id="LinkedIn">
	<path id="linkedin" fill="#FFFFFF" d="M-26.4,355.5v17.7h-10.2v-16.6c0-4.1-1.5-6.9-5.2-6.9c-2.8,0-4.5,1.9-5.2,3.7
		c-0.3,0.7-0.4,1.6-0.4,2.5v17.2h-10.2c0,0,0.1-27.9,0-30.8h10.2v4.4l-0.1,0.1h0.1v-0.1c1.4-2.1,3.8-5.1,9.3-5.1
		C-31.4,341.6-26.4,346-26.4,355.5z M-68.3,327.4c-3.5,0-5.8,2.3-5.8,5.3c0,3,2.2,5.3,5.7,5.3h0.1c3.6,0,5.8-2.3,5.8-5.3
		C-62.7,329.8-64.9,327.4-68.3,327.4z M-73.6,373.1h10.2v-30.8h-10.2V373.1z"/>
</g>
<g id="Instagram">
	<path fill="#FFFFFF" d="M-166.3,328.2h33c3.1,0,5.7,2.3,5.7,5.7v33c0,3.4-2.5,5.7-5.7,5.7h-33c-3.1,0-5.7-2.3-5.7-5.7v-33
		C-172.1,330.5-169.4,328.2-166.3,328.2L-166.3,328.2z M-139.8,333.1c-1.1,0-2,0.9-2,2v4.8c0,1.1,0.9,2,2,2h5c1.1,0,2-0.9,2-2v-4.8
		c0-1.1-0.9-2-2-2H-139.8L-139.8,333.1z M-132.7,346.9h-3.9c0.3,1.2,0.6,2.4,0.6,3.8c0,7.3-6.2,13.3-13.8,13.3
		c-7.6,0-13.8-6-13.8-13.3c0-1.3,0.2-2.6,0.6-3.8h-4v18.7c0,0.9,0.8,1.8,1.8,1.8h30.9c0.9,0,1.8-0.8,1.8-1.8L-132.7,346.9
		L-132.7,346.9z M-149.9,341.6c-4.9,0-8.9,3.9-8.9,8.6c0,4.7,4,8.6,8.9,8.6c4.9,0,8.9-3.9,8.9-8.6
		C-140.9,345.5-144.9,341.6-149.9,341.6z"/>
</g>
<g id="Email">
	<path fill="#FFFFFF" d="M-27.6,259.4c0,1-0.3,1.9-0.8,2.7l-14.3-16l14.1-12.4c0.5,0.8,0.9,1.9,0.9,3L-27.6,259.4L-27.6,259.4z
		 M-50.2,249l19.7-17.2c-0.8-0.5-1.7-0.7-2.7-0.7h-33.9c-1,0-1.9,0.3-2.7,0.7L-50.2,249z M-44.7,248l-4.6,4
		c-0.3,0.2-0.6,0.4-0.9,0.4s-0.7-0.2-0.9-0.4l-4.6-4l-14.4,16.2c0.8,0.5,1.9,0.8,3,0.8h33.9c1.1,0,2.1-0.3,3-0.8L-44.7,248z
		 M-71.9,233.8c-0.5,0.8-0.9,1.9-0.9,3v22.6c0,1,0.3,1.9,0.8,2.7l14.3-16L-71.9,233.8z"/>
</g>
<g id="Search">
	<path fill="#FFFFFF" d="M-125.6,467.3l-11.8-11.8c-1.8,2.7-4.1,5-6.8,6.8l11.8,11.8c1.9,1.9,4.9,1.9,6.8,0
		C-123.7,472.2-123.7,469.1-125.6,467.3z"/>
	<path fill="#FFFFFF" d="M-137,443.5c0-10.6-8.6-19.2-19.2-19.2c-10.6,0-19.2,8.6-19.2,19.2s8.6,19.2,19.2,19.2
		C-145.6,462.7-137,454.1-137,443.5z M-156.2,457.9c-8,0-14.4-6.5-14.4-14.4c0-7.9,6.5-14.4,14.4-14.4c8,0,14.4,6.5,14.4,14.4
		C-141.8,451.4-148.3,457.9-156.2,457.9z"/>
	<path fill="#FFFFFF" d="M-167.4,443.5h3.2c0-4.5,3.6-8,8-8v-3.2C-162.4,432.2-167.4,437.2-167.4,443.5z"/>
</g>
<g id="Social">
	<path fill="#FFFFFF" d="M-35.4,456.2c-2.8,0-5.2,1.3-6.8,3.3l-14.8-7.6c0.2-0.7,0.4-1.5,0.4-2.2c0-0.8-0.2-1.7-0.4-2.5l14.7-7.6
		c1.6,2.1,4.1,3.5,6.9,3.5c4.8,0,8.7-3.9,8.7-8.7c0-4.8-3.9-8.7-8.7-8.7c-4.8,0-8.7,3.9-8.7,8.7c0,0.8,0.2,1.6,0.4,2.3l-14.7,7.6
		c-1.6-2-4.1-3.3-6.8-3.3c-4.8,0-8.7,3.9-8.7,8.7c0,4.9,3.9,8.7,8.7,8.7c2.9,0,5.3-1.4,6.9-3.5l14.7,7.6c-0.3,0.7-0.4,1.6-0.4,2.5
		c0,4.8,3.9,8.7,8.7,8.7c4.8,0,8.7-3.9,8.7-8.7C-26.7,460.2-30.5,456.2-35.4,456.2z"/>
</g>
<g id="Discuss">
	<path fill="#FFFFFF" d="M-127.9,227.4h-43.9c-3,0-5.5,2.4-5.5,5.5v49.5l11-11h38.5c3,0,5.5-2.4,5.5-5.5v-32.9
		C-122.4,229.9-124.9,227.4-127.9,227.4z"/>
</g>
<polygon id="YouTube" fill="#FFFFFF" points="228.9,428.7 274.7,449.8 228.9,470.9 "/>
<path id="Beard" fill="#FFFFFF" d="M-272.2,227.8h8v40h-8V227.8z M-236.1,227.8h8v40h-8V227.8z M-268.2,265.6h36.2v6.4h-36.2V265.6z
	 M-262.4,257.2h-1.8v8.4h1.8V257.2z M-262.4,260h26.3v-2.8h-26.3V260z M-237.9,265.6h1.8v-5.8h-1.8V265.6z M-237.9,262.7h-24.5v2.9
	h24.5V262.7z"/>
</svg>
